<svg id="Layer_1" data-name="Layer 1" xmlns="http://www.w3.org/2000/svg" viewBox="0 0 3302.63 2732.98"><defs><style>.cls-1{fill:#0b5394;}</style></defs><path class="cls-1" d="M4313.17,1463.43c-15.71,32.55-28.45,66.45-46.07,98.06-46.73,83.81-109.17,154.32-181.64,216.7-112.81,97.1-241.39,162.17-386.87,194-137.4,30.09-270,13.33-400.26-36.86-120-46.26-232.56-107.14-343-172-138.62-81.42-273.15-169.19-399.33-269-96.85-76.64-178.39-168.66-255.78-264.2-112-138.27-221.08-278.92-340.44-411.12-66.33-73.47-133.48-146.07-204.27-215.27-9-8.81-17.71-18-26.3-27.19-3.88-4.16-5.84-8.84-1-14s9.7-2.63,14.27,0c2.83,1.62,5.18,4.12,7.6,6.38,148.24,138.52,283,289.74,415.71,442.78,92.23,106.31,178.71,217.67,278.94,316.93,6.94,6.88,14.22,13.42,22.48,21.2,58.11-106.37,128.68-202,197.65-298.66,4.82-6.76,6-26.15,25.2-14.13,2.18,1.36,17.31-17.38,26-27.15,21.73-24.31,42.05-49.93,67.85-70.36,3.17-2.52,5.67-6.9,9.57-3.24,5,4.68-.32,8.42-3.05,11.59-106.75,124.28-204,255.67-294.54,392.15-5.51,8.32-17.73,16-8.36,29.52,15.89,22.88,22.24,23.31,37,.17,87.75-137.43,185.39-267.32,296.92-386.4,35.72-38.15,74.68-73.16,112.62-109.16,23.34-22.14,47.34-44.25,71.74-64.4,13.84-11.42,26.16-29.21,46.09-34,10.4-2.53,12.76-13.7,20.56-19.75C3162,686.54,3261.8,639.31,3373,618.11c52-9.92,105.34-10.47,158.24-7.91,18.83.91,39.6,2.83,56.18,8.46,35,11.89,71.26,20.53,105.31,36.19,58.26,26.79,106.5,66.09,151,111a14.17,14.17,0,0,0,8.09,4.53c-44.78-58.68-103.63-100.09-168.07-134.77,28.92,6,52.71,22.52,78.49,35a360.93,360.93,0,0,0-95.75-54.39c-160.44-61.41-317.35-46.07-471.92,21.88-44.43,19.52-85.44,45.11-127.35,69.14-5.63,3.22-11.42,6.15-16.84,9-2.91-3-3.06-7-1.3-7.83,32.43-14.59,58.11-39.86,89.39-56.24,4.4-2.3,11.36-4.09,11.3-9.91-.07-6.89-9.08-3.14-14.21-10.08,8.28,3.06,14.28-19.3,21.66,3.13,2,6,13.93-1.32,12.93-4.87-6.28-22.29,14-22,23.85-26.54,66.38-30.73,135.6-51.42,208.81-59.86,76.81-8.85,152.56-6.91,226.79,14.78,107.45,31.38,196.5,91.61,268.46,177.22,1.71,2,3.38,4.11,5.24,6a17,17,0,0,0,3.39,2.12c4.63-4.32.09-7-2-9.7-83.89-109.12-191-184.13-326.65-211.66-111.56-22.65-221.65-9.3-329.39,27.31-86,29.23-165.6,71.09-242.89,118-6,3.64-10.76,10.11-20.6,8.93,13.13-19.35,32.29-31,49.63-43.59,140.47-101.74,296.37-157.27,471.33-151.17,87.07,3,168,29.46,246.31,67.35,76.84,37.17,134.24,96,190.73,159.55,1.21-11-6.4-16.51-10.93-22.11-102.86-127-235-204.76-396.72-228.8-88.22-13.12-176-3.35-262.44,18.33-155.25,38.92-294,110.08-417.06,212.08-91.53,75.87-168.83,165-240.36,259.46-28,37-52.64,76.89-83.23,111.55-17.43,19.75-26,45.55-48,61.9-6-2.86-4.39-7.14-1.36-12.27,8.05-13.65,17.53-26.61,22.35-41.93,3.51-11.14,11.6-6.33,20.9-3.65-17.67-12.37-5.89-19.37-.55-28.77,43.79-77.13,98.32-146.48,155-214.1C2819,656.35,2985.52,531.31,3190.13,461.17c129.91-44.54,264-60.94,400.43-43.63,346.22,43.93,582.89,235.11,721.27,550.23,61.81,140.75,80.18,290.94,54.38,443-46.05,271.48-180.7,482.5-434,605.71-121.41,59.05-252.13,70.45-385.12,61.19-139.41-9.71-268.79-55-392.2-117.28Q2874.69,1819,2618.23,1637.56c-123.81-88-235.43-190-338.24-301.74-132.15-143.65-260.52-290.86-401.83-425.89C1796.05,831.45,1710.31,757,1625.7,681.29c-16.72-15-34.74-28.47-52.08-42.76-3.12-2.57-9.72-3.77-5.46-10.21,3.73-5.64,8.18-3.29,11.74,0,14.86,13.75,33.53,22.93,48.21,35.93,22.42,19.87,50,31.86,71.55,52.79,22.35,21.67,47.63,40.28,71.24,60.69q36.16,31.26,71.54,63.45,34.69,31.43,68.74,63.58,34.74,32.87,68.78,66.46,33.39,32.82,66.21,66.22,33.54,34.08,66.57,68.67,32.41,33.77,64.52,67.84,32.76,34.83,65.15,70c126.09,136.66,266.32,256.87,417.09,365.66a3817.48,3817.48,0,0,0,415.85,261.49c108.7,58.87,220.19,111.69,342.18,138.27,61.88,13.48,124.55,17.52,187.5,15.77,17.52-.49,37.38,1.22,51.87-3.53,11.94-3.92,27.95,3.8,38.16-10.95,5.52-8,14.62,7,23.54,4.18l1.84-.68a6,6,0,0,0-1.41-1c-2.72-.83-5.55-2.37-4.41-5.37,2.23-5.88,8.32-4.58,11.88-3.25,5.93,2.22,9.65,11.15,14.71-2.87,2.84-7.87,13.84-4.19,18.24,9.59,3.59-18.55,10.38-27.59,25.93-20.61,5.25,2.36,7,1.65,8.21-3.37.3-1.29.51-2.61.91-3.87,4.88-15.57,16.62,17.16,21.18-3.08,3-13.18,10.69-15,21.6-7.83,1.74,1.14,6.62,2.32,6.49-1.15-.87-24.8,6.26-8.6,12.29-2.85,1.46,1.39,7.87,1.3,6-3.6-5.25-13.84-.21-9.79,8.55-6.59,13.56,5,22.73-8.27,34.64-11.59,10-2.79-2.19-10.87.92-18.73,7.88,13.84,17.49,12.85,26.9,3.75,9-8.74,24.28-8.86,30.16-20.91,2.63-5.37,5.34-6.64,10.31-6.6,14.57.1,16.51-7.12,6.63-23.11,14.66,8.65,25.08,12.17,32.09-1.18-3.59-8.47-13.24.92-18.05-8.89,8.47,3.2,13-21.93,22.8.64,3.26,7.48,8.88,1,12.42-2,2.9-2.51,9.28-6,.43-9.52-9.84-3.88-3-7.71.2-11.14,3.7-4,7.36-5.63,10.54,1,7.27,15.23,13.11,5.1,14.51-2.37,2.64-14.17,8.86-25.64,19.8-34.12,7.61-5.91,12.48-22.93,27.55-8.3,2.42,2.36,12.55-1,13.42-8,1.31-10.64-9.62-2.69-13.74-8.29,6.69-5.49,7-26.31,22.75-6.87,2,2.45,7.9.2,10.16-3.54s1.19-7.27-1.84-10.74c-2.25-2.57-11.29-1.75-5.36-9,3.62-4.46,6-2.69,11,0,17.53,9.61,16.31-10,24.2-16.11-6.26-.43-11.31,7.49-17.34.64-2.12-2.4-.83-4.64.73-7,6.37-9.82,14.72-5.66,23.77-1-.86-10-7.74-18.65,2.74-24.38,7.29,1.49-1.73,14.21,7.16,12.23,6.64-1.49,8.46-7.36,3.67-15.66-3.51-6.06-1.67-16,11-10.92,1.46.58,3.63-.6,5.47-1-3.22-15.23,13.81-20.8,15.92-33.2,1.31-7.65-1.36-17.34,12.2-13.38a4.65,4.65,0,0,0,6-3.84c3-29.81,26-49.41,38.13-74.59C4289.09,1535.9,4303.29,1500.57,4313.17,1463.43Zm-1413.79-158c6.5,3.21,11-1.17,11.84-5.84,1.5-8.24-8.6-8.19-12.14-13.21,2.56-.64,6.35-2.7,7.48-1.71,9.62,8.38,15.62,3.55,22.19-4.39,7.86-9.5,12-18.68,3.05-29.59,5.46,1.9,9.08,14.18,15.46,6.46,10.11-12.23,25.37-20.93,28.81-38.21,19-14.43,36.62-30.19,47.53-52,4.28,1.68,9.15.59,10.59-2.86,6.47-15.42,20.42-24.11,31.28-35.32,50.3-51.94,102.43-101.86,163.41-141.54,48.27-31.41,98.71-58.47,153.11-78a430.79,430.79,0,0,0-112.63,40.75c-17.46,9.24-31.54,30.71-56.77,19.31,1.08,6.41,10.36,6.92,5.58,12.92-2.6,3.26-7.25,7.86-11.83,3.46-9.69-9.28-14,0-21.08,3.61,4.23,4.31,13.68,2,11.34,7.6-5.21,12.36-12.22-3.55-18.88-.86,5.41,17.27.91,22.34-16.38,19.7-3.67-.56-9.9-.66-11.1,1.33-14.61,24.41-38.42,38.41-60.3,54.61-4.2,3.11-4.19,5.46-.43,9.3,5.28,5.4-2.31,7.47-4.05,10.92-1,1.91-5.55,3.35-5.55-.64,0-14.11-5.2-5.68-8.5-2-5.32,5.89-11.92,11.57-14.66,18.63-4.74,12.18-12.7,12.25-22.48,8.37,3,8.86,5.69,16.62,8.55,25-21.29-2-27.36,7.27-18.87,26.17-6.22.26-10.61-8.07-18-3.35s-7.39,11.38-9.17,19.32c-2.22,9.85-14.63-6.58-19.19.6-5.2,8.18-15.31,12.73-16.89,23.29-14.52,11.37-24.9,25.43-28.49,43.89-22.24-4.12-18.16,6.21-8.09,19-26.89-4.87-30.31-2.25-24.44,16.73-15.19-5.14-15.68,1.24-9.86,12.57-4.12-3.24-8.28-6.92-13-.93-3.26,4.17-5.87,8.09-1.21,13.54,3.66,4.26,6,9.7,8.86,14.61-7.57,1.1-12.11-4.24-17.43-8.05-2.08-1.5-4.9-3.1-6.87-.41-1.42,1.93-3,5.84-2.06,7,4.6,6.12,9.32,15.31,15.29,16.41,6.73,1.24,11.06-7.41,10.47-15.6C2897,1325.1,2897.9,1315.07,2899.38,1305.44Zm-20,112.08c21.67-5.28,25.81-27.73,37.35-41.72,40.24-48.8,80.64-97.47,121.77-145.54,19.35-22.62,38.31-45.58,57.44-68.38-4-1.24-5.86-.61-7.07.64-73,75.73-140,156.65-205.86,238.55-4,4.93-4.44,10.87-3.12,17-2.57-.21-6.61-1.58-7.48-.46-15.81,20.22-31.29,40.7-46.68,61.25a4.07,4.07,0,0,0,2.26,6.36c2.11.65,5.74.33,7-1.08a72.77,72.77,0,0,0,8.86-12.64C2854.79,1452.85,2873.92,1439.66,2879.42,1417.52ZM3170.51,939.3c-6.4-1.14-13.17-.82-17.54-7.46-3.49-5.31-6.57-15.72-15.32-6.62-7,7.26.35,11.52,6.11,15.06s7.17,8.56,2.22,13c-5.95,5.28-7.9-2.12-10.08-5.17-7.41-10.3-13.37-11.59-24.48-2.72-24.75,19.75-48,41.12-71.66,62-43.1,38.09-84.64,77.79-123,120.73-31.54,35.31-60.45,72.79-90.58,109.26-42.57,51.5-79.9,106.79-120.26,159.87-3.24,4.25-2.8,8.59-1.19,13.15-3.37-.9-7.19-1.12-9,2-15.75,26.71-34.95,51.56-44.22,82,6.94-6.71,14.47-13.73,17.25-22.3,2.35-7.23,13.27,10.4,12.69-7.2-.37-10.91,15.91-23,23.37-35.62,2.33-4,6.56-1.81,7.78,3.6,1.53,6.75,6.24,6.49,10.13,2.49,4.17-4.29,2.26-9.59-2.56-11.21-7.63-2.58-10.55-9.52-15.9-14.1,6.32,1.37,13.39,1.43,18.71,4.51,4.64,2.68,8.63,8.32,12.64,1.79,3.36-5.47-.94-9.37-7-11.53-3.46-1.23-7.85-5.72-5-8.9,4.7-5.19,8.42-2.48,11.19,3.91,2.32,5.35,11.33,3.93,11,1.26-1.49-12,9.49-14.22,14.81-18.9,9.56-8.42,9.23-12.82-1.27-18.21-3.56-1.82-7.4-3.19-6.56-8.44.49-3.07,2.28-4.33,5.18-5,6.19-1.35,5.31,4.18,7.41,7,3.18,4.33,8.68,13.6,12.5,4.43,6.73-16.15,21.08-25.12,30.23-38.66,5.22-7.74,6-13.49-4.23-16.41-5.41-1.54-9.49-3.81-4.92-9.16,3.86-4.52,8-2.66,10.79,2.66,6.28,12.06,10.74,6.79,16.71-1.07,12.13-16,24.59-31.76,38.21-46.44,16.33-17.62,15.67-22.63-7.06-29.53,1.57-6.33,5.77-9.82,11.57-11.65,6.21,4.84,4.85,29.23,18.8,11.08a784.89,784.89,0,0,1,64.58-73.39c6.87-7,6.18-12.21-1.87-17.17-3.44-2.12-10.52-1.08-8.24-8.3.62-2,3.56-3.7,5.81-4.54,9.29-3.48,6.78,5.36,8.69,9.06,4.32,8.35,8.5,8.85,14.66,1.64,57.47-67.31,121.79-127.2,194.13-178.3,4.37-3.09,6.44-6.32,5.86-11.44a26.53,26.53,0,0,0,16.35-5.57c40.38-29.15,83.25-54,129.91-71.84,86.85-33.15,174.42-44.19,262.87-6.21,21.43,9.2,42,20.37,63,30.64-63.75-50.48-136.37-72.66-217-65.88-17.72,1.5-36.16,1.84-53.18,11.28-5.45,3-17.52-7.89-20.72,7.14-8.7-5.37-18.18-14.27-19.17,6.21-.11,2.45-7.72,4.3-12.37,1.14-3.56-2.42-5.77-7.53-11.6-5.92-3.82,4.32,12,10.9-1.84,14.36-25.71,6.45-48.45,19.82-71.73,31.89-5.57,2.89-12,8.38-15.54-2.28-2.3-6.88-5.57-4.73-10.48-2.57-18.18,8-34.32,16.73-23,41.18-11.58,1-16.21-6.94-23.06-10.42-4.57-2.33-7.63-1.69-10,2.22-2.43,4.06,1.18,6.28,3.92,7.46C3165.35,926.38,3170.61,930.66,3170.51,939.3Zm923.64,281.86.55.55c-.58-10.7-3.82-22.1,7.77-29.52,5.83.14,5.07,14.14,12.19,7.54,5.67-5.25,0-10.13-6.62-12.51-3.67-1.32-3.25-5.37-2.25-8.64,3.06-10,5.85-20.08,9.46-29.87,13.18-35.64,22.56-72.08,25.14-110.15,2.85-42.24,1.22-84.11-8.5-125.5-.94-4-.57-8.56-5.71-8.74-5.59-.19-5.23,5-5.65,8.67-.44,3.94-.31,8-.36,11.94-2,164.17-59.37,307.05-165.76,431.08-62.38,72.73-136.4,131.76-216.78,183.11a896.36,896.36,0,0,1-128.92,68.25,630,630,0,0,1,50.51-38.43c93.66-64.79,182.45-135.39,256.29-222.73,82.87-98,140.48-207.41,146.22-339.08,3.22-73.77-11-143.93-42-210.67-3.71-8-5.22-19.64-19.31-21.64,3.83,18.26,7.28,35.43,11,52.54,20.4,92.88,23.38,185.76-3.49,277.81-28,95.78-82.82,176.28-149.13,249-67.69,74.24-147.61,135.49-221.4,203.25-93.28,85.65-201,144.46-319.29,186.31-18.71,6.62-37.33,13.53-56,20.31a107.46,107.46,0,0,0,37.27-.41c14.78-2.85,29.09-8.08,43.82-11.23,11.22-2.39,23.28,10.73,35-3.21,3.12-3.7,16.67,10.26,22.33-4.66.59-1.56,6.32.73,8.09,3.62,2.22,3.63,2.42,8-1.17,10.79a34.79,34.79,0,0,1-10.7,5c-36,11.27-72.83,19.18-110.06,24.87-27.43,4.19-55.08,6.88-84.16,10.43,5.93,6.44,11.57,4.88,16.59,5.24,72.39,5.13,144.74,2.44,216.74-4.86,32.76-3.33,66.56.89,98.35-11.36,3.5-1.34,6.33.84,7.3,4.65,1.21,4.79-.72,7.53-5.55,8.42-5.21,1-10.38,2.19-15.61,3q-74.16,11.58-148.33,23.07c9.13,4.15,18.59,5.25,28.08,5.65,79.81,3.33,159.3-1.34,238.64-9.62,6.84-.71,15.31-5,17.06,6.34s-9.21,8.23-13.72,9.06c-101.8,18.65-204.53,21.64-307.53,15.34-40.91-2.51-81.61-8.38-122.41-12.72,37.74,16.58,77.08,26.26,117.78,31.39,79.63,10,159,7.74,238.11-4.4,55.83-8.56,110.37-22.5,162.82-43.62,8.64-3.48,24.46-4.27,15.58-22.58-3.42-7.07,6.67-8,11.32-11,2.21-1.39,5.27-2.65,6.78.47,2.54,5.26-.91,8.43-4.77,11.51-2.47,2-4.57,4.65-2.94,10.18,7.47-4.15,22.51,2.75,16.82-16.77-4.18-14.31,10.67-14.18,18-19.27,2.78-1.93,9.41-2.8,9.84,2.34.87,10.65-9.42,5.94-14.39,8.77-3.55,2-3,5.75-2.37,8.84,1.07,5,5,3.82,7.59,2,8.51-6.1,23.85-7,16.45-25-3-7.34,6.76-10,12.77-12.43,3.88-1.57,8.82-1.92,10,2.94,3,12.16-7.59.08-9.55,5s-2.81,9.51-.41,16.64c8.14-9.19,26.49-8.14,18.06-28.56-2.69-6.53,8.7-10.14,14.65-13.94,2.37-1.51,5.29-1.77,6.37,1.53,2.73,8.33-6.16,8.88-9.35,13.27-1.64,2.25-3,4.28-.47,8.68,8.19-4.78,21.7-5,21-17.72-.49-9.27-3.64-20,7.84-19.22,11.33.74-3.65,12.08,5.12,19.84,2.46-6.88,20.74-4,6.93-19.69-3.26-3.7.43-7.3,3.84-9.75,16.81-12.09,33.64-24.16,50.74-36.44,4.08,5.73-4.21,13,2.8,16.84,5.46,3,8.06-2.75,11.4-5.56,8.74-7.35-.26-9.11-3.89-12.8-1-1.07-1.73-4.32-1.07-4.94,10.4-9.59,18.21-23.56,35.2-24.29,1.87,9-6,9.2-7.64,14.59-2,6.53-20.25,5.35-13.65,13.93,5.8,7.55,13.7-7.22,21.71-10.06,2.17-.77,3.74-3.68,5.21-5.85,4.62-6.84,19-12.94,1.44-21.67-3.06-1.52-2.21-6.38.51-8.71s5.75-5.71,10.27-3.82c3.28,1.37,5.66,3.29,3.91,7.45-1.39,3.28-1.43,6.37,3,9.05,10.33-10.73,26.15-17.14,27.64-35.3,12.26-2.25,21.24-8.8,25.07-20.82,1-3.25-3.36-4-5.66-3.3-11.87,3.81-17.42,12.73-18.81,24.68-6.31-.64-11.77-.1-14,7.4-1.06,3.52-2.87,9.4-7.51,6.6s-.6-7.14.95-11.56c6.17-17.6,31.28-19.2,33.05-40.53.26-3.19,9.86-4.62,12.39-1.39,17,21.81,16-4,23-8.32l-.51.59c4.46-8.49,25.66-12.42,6-27.59-6.81-5.25,4.1-10.84,6.87-16.25,3.37-6.57,7.3-3.17,11.22-.28,2.62,1.92,3.62,8.92,8.42,4.32,3.73-3.58,3.24-8.33-2.21-11.42-11.24-6.36-1.18-10,1.92-14.67,4.69-7.09,12.09,2.4,17-2.1-.15-7.54-14.31-4.67-9.41-14.87,1.49-3.09,3.67-7.83,6.26-6.5,13.58,7,9.52-4.89,12.54-10.29,4-7.1-5-25.8,15.79-19,.27.09,2-2.15,1.78-3-4.05-15.23,5.35-15.71,16.22-12.79-.9-9.33-15.63-9-10.32-18.62,4.51-8.23,13.77.73,20.85-2.06-1.91-7.92-15.54-4.33-12.38-13.15,3.61-10.09,11.88,2,17.6-.58.54-9.59-14.14-9-10.84-17.78,2.58-6.9,9.13,1.14,13.63-1,1.14-5-9-6.27-4.54-11.39,4.22-4.88,7.6,7.73,13.33,1.91-.26-8.85-14.37-13.69-9.37-22.35,5.66-9.81,12.46,8.47,20.08,1.84-11.63-9.79-13.79-27-2.77-30.36,7.91-2.4,7.76-3.44,4.68-9.09-7.43-13.64.92-15,11.28-13.92,2.79-8.23-14-13.61-5.28-18.58,21-12-1.73-12-1.54-23.16-118.48,331.85-434.68,511.87-652.49,537.28-.42-8.56,8.26-14.78,11.74-12.81,9.9,5.58,16.85-5.29,19-4.54,16,5.72,22.54-10.48,34.45-12.76.64-.12,1.79-.21,1.92.06,8.89,18.64,10.76,1.09,15-3,5-4.77,11.31-6.25,17.5-8.63,27.21-10.46,54.91-20,79.46-36.23,5.2-3.44,13-6.86,9.75-15.14-6.93-17.45,7.06-14.86,15.13-20.26,1.43,6.14-1.06,7.24-3.31,8.51-5.76,3.26-8.85,8-7.37,14.72.31,1.42,2.65,3.6,3.75,3.44,7-1,11.7-5.89,15.53-11.27,1.3-1.83,1.15-5.12.8-7.62-2-14.59,8.37-18.32,18.48-23.62,5.09,12.95-14.5,14.78-8.78,28.08,44.58-29.86,89.37-58.29,131.55-90.74,15.22-11.71,10.92-17.8-3.14-24.16l0,.06c18.3-11.23,33-27,49.34-41.24,4.13,5.71-2.29,14.29,5.49,16.32,6.75,1.76,10.14-5.3,13.55-9.51,5.29-6.56,2-10.26-5.69-12.21-7.16-1.83-2.72-5.55-.28-8.29,6.59-7.4,12.52-15.61,22.7-21.41-2.55,15.94-2.46,19.58.5,19.76,8.07.49,10.71-6.81,14.24-11.79s10.4-8.74,8.53-16.62l-.63.67c24.8-14.8,35.81-41.49,53.61-62.32,1.76-2.07,1.67-5.62-2-6-18.66-1.93-8.74-10.85-3.49-16.62,13.38-14.69,25.42-30,32.59-48.82,4.39-11.57,11.77-13.5,20.54-3.48-17.46,14.2-42.93,54.12-40,66.79,14.52-23.31,30.3-43.28,39.59-67.31l3.88-3.19c-13.43-12.75-13-23.91,3.54-33.62,1-.56.58-3.75.46-5.7-.79-13.42,6.72-18,19.9-15.54-3.55-7-14.9-2-12.14-8.85,3.85-9.59,6.22-23.84,26.28-18.78-14-9.57-14.47-10.12-4.93-18.34,3.18-2.74,1.79-3.78,1-5.75-3.36-8-5.46-14.68,6.62-17.71,4.24-1.07,5.23-7.34,1.48-11.78-2.41-2.85-8.31-7-4.19-9.22,16.89-8.93,7.36-26.42,13.88-38.88,7.38-14.1,10.69-32.62,10.77-46.49.09-16.46-.32-31.91,5-47.62,1.66-4.85-.8-9.78-6.23-10.67-6.45-1-4.42,4.75-5.13,8.12-6,28.86-10.22,58.24-18.39,86.48-43.38,149.87-134.41,267.76-251.44,367.1-54.91,46.6-113.54,87.52-180.93,116-22.76,9.6-47.89,15.67-68.11,29.44-14,9.54-33.7.17-43.72,17.1-1.42,2.4-6.14,3.18-8.79-.06-2.88-3.51.64-5.45,2.3-8.2,6.26-10.4,19.33-5.25,26-10.78,20.12-16.66,43.71-27.44,65.94-40,77.62-43.9,149-95.92,213.53-157.27,13.56-12.89,30.44-23.8,36.89-43.12l-.72.72c14.53-5.82,19.68-20.59,29.35-31.07,6.6-8.29,13.52-16.35,19.68-24.95,3-4.19,11.2-9.82,3.64-14.42-10.93-6.66-8.81,3.7-9.69,9.71-.21,1.48-2.3,3.17-3.91,3.87-12.73,5.51-12.93,15.23-9.17,26.38-2.54-6.75-25.14,3.55-13.36-14.37,11.24-17.09,28.05-29.92,37.22-48,10.66,4.62-1.38,16,10.45,18.87,9.34-18.19,27.16-31.57,30.78-53.47l-.59.62c21.19-18.73,26.4-47.12,41.71-69.54C4110.48,1221.29,4096.9,1225.2,4094.15,1221.16ZM3475.92,962c-67.83-1.05-136.88,35.55-197.63,90.8-73.82,67.14-131.28,147.49-183.47,231.79-73.75,119.13-136.75,244.16-201.69,368.15-8.38,16-5.06,22.58,8.53,30.38,29.34,16.83,60.28,31.82,86.71,52.5,34.15,26.72,71.29,27.94,110.76,23.88,5.28-.54,10.54-1.37,15.83-1.8,184.43-15,347.59-85,489.74-200.42,112.08-91,168-210.72,148.18-358.23C3733.79,1056.86,3627.81,961.26,3475.92,962Zm319.79-159.22c-30.31-38.46-68.77-67.57-111.56-89.77-134.63-69.85-274.37-76.79-416.32-25.87-137.16,49.2-248.92,137.08-352.22,237.33-145.27,141-262.3,304.37-376.14,470.45-15.27,22.27,4.73,26.42,14.14,34.78,13.25,11.76,14.52-5.71,18.14-11.18,112.6-169.87,238.71-328.52,385.7-470.24,89.91-86.67,186.06-164.63,300.62-216.39,112-50.61,228.8-60.67,348.26-31.33C3678,718.13,3740,754.47,3795.71,802.75ZM3363,756.26c-.92-7.45,9.36-5.27,6.54-12.23-1.22-3-4.22-3-6.79-2.56-4.95.8-9.13,2.92-8.59,8.87.38,4.14.7,7.82-3.42,10.48-3.62,2.33-10.29,3.42-9.84-.12,3-23.68-8-11.21-18.35-9C3250,767.64,3185.07,800,3124,840.9c-73.73,49.36-137.08,110.82-197.85,174.66C2805,1142.81,2698.73,1282,2601.4,1428.1c-18.49,27.76-18.28,27.92,7.25,50.5.77.69,2.19.64,3.45,1q8.45-12.33,16.84-24.6c134.67-197.17,284.83-380.63,467.79-535.87,52.74-44.75,108.17-83.94,170.69-113.5,35.19-16.64,71.36-30.4,109.28-38.3,33.78-7,66.78-14.19,102.83-13.94,90,.63,169.61,25.63,241.12,78.95,14,10.47,27.5,21.69,42.74,33.76-1.83-9.34-7.57-13.11-12.14-17.44-84.8-80.33-186.31-116-302.33-113-12.27.32-25.38-1.66-25.7,16.5-9.41-3,5.58-15.88-9.11-15.77-9.67.08-8.66,5.19-8,11.44.3,2.9-1.05,5.36-4.47,4.53-4-1-10,.32-7.52-7.91,2.24-7.51-4.4-4.2-7.25-4.2-2.48,0-7.26-1.08-5.82,4.64C3387,768.52,3369.8,753.06,3363,756.26Zm801.49,855.83c-9.53-4-12.22,8.43-18.85,1.88-2.37-2.33-4.82-7.84-2.82-8.55,10.38-3.68,17.57-14.23,29.11-14.24,3.72,0,7.58,3,10.14-1.57,2.15-3.85-1.47-5.63-3.77-7.95-7.7-7.77-4.62-11.86,5-11.77,13.08.12,15.35-2.23,4.87-12.07-8.4-7.88-.63-12.82,5.89-15.43,4.6-1.84,10.32-.87,18.35-1.31-13.06-6.91-15.43-17.74-4.61-22.77,11.86-5.51,5.78-18.62,14.6-23.35,2.48-1.33,3.69,2.72,5.5,4.36,5,4.57,6.9-.51,7.9-3.88,1.11-3.76,7.26-8,1-11.74-4.5-2.71-3.64,7.16-8.88,5.12.13-17,.13-17,20.63-23.47-6-4.51-14.15-5.2-15-16-16.19,30-31.48,55.79-49.76,80.25-71.66,95.91-159.53,173.52-260.74,236.59C3762.47,1866.27,3586,1904,3398.74,1900.27c-9-.18-24.67-9.53-26.12,1.89-1.4,11,15.28,5.57,24.12,7.62,46.21,10.69,93.09,13.19,140.25,15,12.23.46,28.28-8.12,37.61,8.47.33.58,4.5.1,4.67-.5,1.88-6.69,5.64-10.65,12.8-8.28,8.26,2.74,1.46,10.49,4.42,15.53,2.45,4.15,4.85,6,9.31,5,5.41-1.24,2.76-3.54,1.22-6.62-2.35-4.69-4.37-10.53,1.82-13.83,4.15-2.22,9.39-1.54,13.39,1.12,7.95,5.29-5.55,9.16-.9,15.36,7.11-1.8,19.59,2.74,14.9-12.63-2.24-7.31.82-8,6-8.59,7.92-.88,9.08,3.22,6.87,9.62-1.69,4.89-2.3,9.78,4.6,10.17,6.07.34,10.1-3.09,10.25-9.58.11-4.89-7.41-12,4-13.37,9.4-1.15,8.71,5.51,8.72,11.64,0,3.36.38,7.15,4.93,6.82,3.26-.24,7.64-2.3,6.82-5.77-5.11-21.58,10.83-19.28,23.39-21.86,6.46-1.33,12.93-5.21,18.94-.69,8.08,6.08-8.2,10-1.75,17,9.25-3,17.38-6.61,13.11-19.22-1.74-5.12,1.47-7,5.52-8.6,3.65-1.45,7.61-4.68,11.12-2.16,8.3,6-5.63,12.45,1.09,21,4.09-5.49,14.9-1,12.22-15.48-2.79-15,8.86-14.88,21.55-15-2.12,8.16-13.75,10.49-6.4,16.89,3.65,3.18,9.91-.26,10.08-5.49.64-20.38,19.14-20.89,31-28.57,4.78-3.1,11.29-6.4,10.57,5.24-.44,7,5,6.7,9.76,4.45,4-1.89,10.62-4.47,6.19-9.69-9.32-11-1-12.69,6.57-16.12,4.76-2.15,9-5.47,13.41-8.33,7-4.49,14.38-13.33,18.5,2.67.73,2.82,3.45,4,6.29,2.6,3.06-1.48,6.74-4.39,4.67-7.47-7.14-10.64-1.2-18.94,7.48-18.75,15.48.32-4.3,12.54,6.16,18.51,2.46-6.16,19.78-4.1,6.93-18.77-2.18-2.49-2.28-6.47,1.59-8.42,1.58-.8,5-1.25,5.47-.52,13.84,22.09,21.38-3.58,32.06-4.86,5.43-.66,9-9.2,4.61-16.52-2.3-3.84-10.86-7.53-3.1-12.19,8.22-4.94,11.53,1.2,12.35,9.1.61,5.76,4.93,6.09,8.61,3.77s9.24-6.77,4.34-11c-17.69-15.24-1.84-16.53,7.91-20.36,8.42-3.31,14.49-8.71,17.59-17.37,2.18-6.07,4.86-6.16,10.09-2,14.61,11.65,22.29,8,27.51-12.94-7.75-.28-8.8,7.16-13,10.49-4.45,3.54-9.2.87-8.51-3,1.69-9.37,11.71-13.68,16.26-22.17,2.25-4.2,8.69,2.25,10.66,7.62,1.05,2.87,1.19,7.34,5.92,5.63a10.65,10.65,0,0,0,5.29-5.48c1.84-4.31-2.36-4.87-4.8-6.89-3.93-3.25-10.47-4.24-12.72-14.62,11.72,8.42,19.24-4.83,30.76,1.26,7,3.73,17.39-13.46,12.74-20.77-2.34-3.69-8-6.68-3.1-11.58,5.47-5.46,11.14-.69,13,3.3,3.59,7.68,6.12,4.67,9.52.7,3.14-3.69,3.4-8.65-1.35-9.51-9.13-1.65-12-4.84-6.53-13s10-3.29,13.74,1.73c2.79,3.73,5.47,6.54,8.72,1.23,2-3.24,8.25-7.74.67-11-6.34-2.75-8.5-6.25-5.2-12.09,1.87-3.32,4.48-7.17,9-6.92,8.6.49,2.46,10.26,8.42,14Zm-289.39-455.52c-28.18,104.09-81.55,196.19-136.29,287.64C3819.92,1365.31,3863.76,1268.67,3875.08,1156.57ZM3746.91,494.26c181.48,91.28,312.5,216.39,334.59,429C4102.15,773.91,3908.94,524.94,3746.91,494.26ZM2527.35,1526.08c98,94.51,209.48,170.55,324.05,242.36l2.85-3.91Q2690.8,1645.31,2527.35,1526.08Zm1378.79-278.73c46.47-92.94,62.63-190,40-292.26C3958.57,1056,3938.61,1152.52,3906.14,1247.35Zm350.08-96.26c-12.74,31.54-15.34,66.17-28.26,97.91-2.54,6.24,5.49,6,9.24,7.47,3.92,1.53,7.62-2,5.57-4.87-9.86-14,3.7-26.44,5.4-38.28C4251.06,1193.18,4249.48,1171.4,4256.22,1151.09ZM2853.08,1367c-4.82-3.66-10.15-8.42-16.18-12-4.63-2.77-6.94,1.15-8.55,5.06-2.6,6.31-13.85,11-3.87,19.64,4.62,4,6.83,15.68,13.29,11.36,8.45-5.64-2-10.45-5.48-15.16-1.88-2.54-5.34-5.36-1.91-8.26,4.5-3.81,7,.76,9.07,3.85,2.24,3.33,4,7.4,8.85,4.29C2849.71,1374.84,2850.18,1372.46,2853.08,1367Zm15.24-18.27c-8.77-1.56-7.62-14.49-17-15.82-5.93-.84-10.55,7.61-9.07,10.67,3.31,6.86,9.29,12.92,15.52,17.51C2859.24,1362.14,2866.68,1356.67,2868.32,1348.71Zm1078.37,233.47c11.94-2.88,16.34-13.43,24.26-19.5,3.37-2.58,2.9-5.77.75-8.41-1.45-1.78-4.1-2.57-6.21-3.81C3959.8,1560.9,3943,1564.77,3946.69,1582.18Zm-1162-157.31c-3.16,4.17-12.37,4.57-10.23,10,1.93,5,8.84,9.82,14.39,11.08,4.85,1.09,9.45-5.57,8.83-10.53C2796.91,1429.22,2790.13,1427.42,2784.7,1424.87ZM3940.31,1708c-2-2.3-1.64-8.65-7.67-4.06-8.94,6.8-16.19,15.74-26.95,20.37-2.25,1-2.38,6.09,1,8.2C3909.37,1734.14,3940.17,1711.44,3940.31,1708Z" transform="translate(-1074.91 -410.77)"/><path class="cls-1" d="M3905.13,2943.29a29.71,29.71,0,0,1-22.55-2.37c-122.54-61.57-237.83-135-347.53-216.78-125-93.23-247.79-189.51-372-283.79-46.06-34.95-95.67-64.59-147-91.31-7.38-3.84-15.09-7.06-24.4-7.69,4.41,4.65,8.48,9.67,13.26,13.89,147.43,130.07,287.3,268.35,433.36,399.89,62.18,56,128.17,107.5,194.72,158.26,9.06,6.92,28.67,14.15,19.59,26.44-10.45,14.13-23.08-3.4-32.83-10.18-136.21-94.6-257.38-207.22-380.62-317.44-85.61-76.57-173-151.15-259.63-226.58-4.41-3.84-9.18-7.25-15-11.8-21.92,46.55-43.64,91.89-68.05,135.91-83.09,149.89-184.06,285.32-315.06,397.34-130.39,111.51-278.25,188.49-447.12,219.21-289.42,52.64-548.6-12.43-768.39-212.48-157-142.88-251.82-320.78-281.93-531-28.37-198.05,8.31-382.16,130.62-544.62,82.75-109.93,188.47-186.47,325.15-214.14,109.79-22.22,217.9-12.78,323.74,24,157.53,54.76,305.32,129.4,445.91,218.58,154.65,98.09,307.85,198.43,467.21,289,167.9,95.44,338.21,186.29,510.26,273.93,97.2,49.51,189.17,107.72,279.8,168,112.42,74.76,230,140.39,349.33,203.13,7.05,3.71,14.1,7.43,21.05,11.3,4.82,2.68,9.56,5.88,6.43,12.42-2.94,6.13-9.14,6-13.9,4-17.16-7-34.35-14.18-50.88-22.55-122-61.78-241.37-128.24-355.42-204.09-51.31-34.13-104.55-65.37-157.13-97.56-6.39-3.92-12.72-9.21-24.57-9.72,35,30.07,70,54.88,103.27,81.91-92-53.16-176.53-117.92-271.7-166,26.57,20.24,52.7,41.12,79.81,60.63,106.17,76.4,205.75,161.32,310.46,239.62,104.31,78,213.83,148.05,325.5,214.89,6.6,4,17.33,4.59,17.48,16A15.23,15.23,0,0,0,3905.13,2943.29ZM1422.64,1969.45c9.93-1,20.92-3.2,25.91-11.45,15.22-25.11,38.87-40.57,60.19-59.2,12.64-11,26.08-21.59,37.9-33.71,2.36-2.42,7.6-4.52,2.91-9.23-3.45-3.46-5.35-.6-7.91,1.8-26,24.39-56.86,43-81.45,69,0-13.36,7.62-21.94,18.09-28.51,17.7-11.11,31-27.55,48.11-39.9,13.69-9.92,23.64-25.08,42.47-28.26,1.43-.25,2.35-2.83,3.77-4,9.33-7.63,12.39-26.15,31-17.81,1.91.85,2.42-1.41,2.94-3.53,2.83-11.37,12.34-15.8,21.79-20.46,29.65-14.63,59.18-29.5,92.86-46.33-8.37,0-11.86-.71-14.93.12-14.62,3.93-29.39,7.53-43.63,12.59q-165.84,59-279.56,193.55c-125.91,148.6-176.63,317.51-132.66,509.41,39.09,170.62,136.11,301,288.28,387.78,144.32,82.27,298.85,90.08,457.33,52.59,101.54-24,190.74-75,276.51-132.57,13.15-8.82,26.48-17.39,39.72-26.07-40.94,46.19-90.32,81.27-142.37,111.92-102.74,60.48-212.84,99.77-332.68,110-85.32,7.3-168.27-2.55-247.91-33-107-40.86-193-110.51-261.13-201.83-75.27-101-123.63-212.92-134.53-339.8-11.86-138,21.57-264.42,94.85-380.92,13.5-21.47,29.23-41.54,43.69-61.91,8.4,4.16,2.38,11.31,8.09,15.45,14.05-10.15,20.49-28,35.63-37.49,14.61-9.14,12.06-16.38-4.15-19.81,4.3-8.16,11.42-10.77,16.8-15.36-5.29,6.15-1.86,12.36,2.82,14.93,4.9,2.71,9.4-2.5,12.71-6.74,4.29-5.48,8.6-11,13-16.51-4.59-6-10.91-3.71-16.4-4.51,3.08-7.41,10.72-17.58,15.72-10.39,10,14.43,14.33,3.6,20.72-1.06,10.93-8,18.44-19.36,29.56-27.75,10.3-7.79,22.2-16.4,33.06-30.86-19.26,3.35-25.56,19.69-40.56,20.74,68.56-66.8,152.09-106.69,243.84-132.07a14.66,14.66,0,0,0-8.82-2.72,71.42,71.42,0,0,0-9.89.9c-154.61,24.66-283.4,96.57-379.62,219.59-143.82,183.87-187,389.9-116.55,614.68,54.57,174.25,161.26,309,320,401,67.94,39.35,143.33,54.87,219.8,66.31,2.86.43,7.4-.5,8.9-2.5,4.72-6.28-8.54-5.12-5.23-11.94,7.27,2.16,15.61,2,19.29,11,2.49,6,8.68,7,13.42,6.14,20.18-3.86,40.47.36,60.59-1.77,5.44-.58,13.45.94,8.58-10-1.47-3.31.81-9.67,7.1-9.62,6.84.05,5.1,5.84,6.57,10,1.2,3.39-6.3,7.5.75,9.26,5.35,1.33,9.4-2,10.18-7.08,2.16-14.22,10.72-8.82,20.15-10.74,14.28-2.91,7.09,15.82,20.46,12.36,41.12-10.66,82.9-18.67,123.72-30.81,15.48-4.6,32.32-6.21,17.42-30.5,12.7,2,13.45,35,31.44,9.65-4.32-6.94-16,0-17.54-9.93-1.26-8.1,6-1.46,9.23-4.76,10.37-10.56,9.92,1.61,10.76,7.09.94,6.1,1.88,10.8,9.43,8.64,8.48-2.42,6.43-7.44,3.74-13.59-1.74-4-7.65-8.65-2.71-12.38,4.5,3,12.45,6.14,12.25,8.57-1.73,20.61,9.45,7.55,14.69,5.54,13.65-5.26-1.48-11.22-.14-16.92.91-3.83-5.52-9.51,2.45-11.44,5.15-1.25,3.5,4.27,5.32,6.33,4.19,4.72,1.6,19.53,14.62,11.49,8.29-5.12,24.09-6.91,14.73-23.9-1.72-3.13-.66-7.79-1.11-15.82,4.28,5.82,6.73,7.68,7.11,9.89,3.09,17.88,11.08,13.41,22.71,6.87,57.85-32.55,110.51-72.38,162.08-113.77,4.59-3.68,16.3-9.87-1.11-12.66-3.94-.63-2.93-4-1.34-6,2-2.43,5.22-6.26,8.18-3.75,21.39,18.11,22-8.77,33.65-12.51-4.73-7.81-14.89,2.27-15.1-6.92-.12-5.65,7.32-8.47,13-10.48,4.29-1.53,8.59-3,12.88-4.56-4.58,2.86-9.75,7.27-5.43,12,4.83,5.28,9.12-1.22,12.44-4.61,6.69-6.83,13.89-13.38,17.52-22.61,11.13-1.84,13.67-13.24,21.23-19.16,9.69-7.57-12.22-7.91-4.16-16.2,6.5-6.69,12.62,10.29,19.56-.68,5.54-8.74,16.76-15.09,19.25-24.19,2.33-8.53,23.95-8.45,10.08-22.81,9.32,2.31,14.08-4.79,18.43-10.31,20.75-26.37,40.94-53.19,61.26-79.89,54.82-72,103.8-147.67,141.94-230,6.13-13.21,12.74-26.46,14.92-45.05-4.4,5.49-6.53,7.94-8.45,10.56-41.52,56.79-81.09,115.13-124.92,170.08-101.31,127-219.21,235.94-357.82,322-103.14,64.05-213.5,106.88-334.79,117.94-209.06,19.07-382-50.12-509.06-219.22-107.2-142.65-137.27-302.18-87.5-474.78,27.62-95.79,84.19-174.46,150.2-247.13,4.37-4.81,8.82-10.57,16.88-6.75q-19,21.81-38,43.63c-10,13.86-19.74,27.87-30,41.49-2.26,3-7.3,4.89-2.36,8.8,2.66,2.1,5.48.39,8-2.79,6.19-7.92,13.23-15.18,19.85-22.77C1424.51,1986.87,1431.6,1979.61,1422.64,1969.45Zm1342.08,481.24c-5.11-.86-7,3-8.67,6.44-22.91,46.74-56.12,86.44-87.28,127.52-4.66,6.14-4.65,11.95-2.87,18.55-18.79-5.68-18.3,12.56-25.24,20.92-70.13,84.59-142.63,166.64-227.74,237.08-85.66,70.89-177.74,130.31-281.25,171.72-38.74,15.5-78.54,27.67-120.07,40.64,3.33.9,4.64,1.71,5.74,1.5,96.83-19.15,184.22-61.15,269.15-109.73,21.16-12.1,36.49-32.33,61.73-39.29,11.14-3.07,16.37-21.74,33.06-18.6-.28-10.2,5.2-11.67,13.48-8.9-5.47-23.09,12.07-9.2,19.67-10.62-4.76-14.84-4.65-14,10.39-16.17,9.18-1.3,7.95-20.18,22.43-15-7.81-11.77-3.57-11.73,6.17-6.3,2.71-10.94,9.81-15.61,20.87-14.59-9.33-20.45,15-19.17,20.21-30.79,4.7-10.49,15-15,26.4-7.46,2.85-8.55-10.14-7.06-6.26-13.49,4.49-7.47,11.92,1.59,17.78-1.39-5.23-8.93-.38-19.11,10.74-26.11,5.72-3.59,15.77-3.45,15-14.12-.83-11.2,3.36-12,10.59-4.88,2.32,2.27,3.55,6.29,7.35,2.65,2.71-2.59,2.5-5.7-.1-8.75-2.92-3.42-6.37-7-2.71-11.86,7-1.73,8.83,7.05,14.58,7.22,5.39-7.38-10.73-9.28-3.71-16.89,6.16-6.68,11.11,2.85,17.05,2.19,1.89-7.14-10.25-10.65-2.82-18.16,6.15-6.22,10.72-6.76,15.58.94.16.26,3.61-.74,4.44-1.91.93-1.32,1.46-4.12.68-5.22-2.54-3.59-12.39-2.82-7.3-10.77,5-7.8,12.55-.62,18.11-.82,3-4.06.23-4.88-1.48-6.86-9.74-11.19,4.9-13.7,7.85-20.39,1.2-2.72,4.09-8.54,8.22-2.36,2.22,3.34,3,8.27,7.86,3.45,2.74-2.69,3.69-5.38,1-10.2-5.21-9.35-4.28-11,5.82-10.84,7.87.09,7.08-5.55,7.47-9,.64-5.72-.79-11.67-1.39-17.57,9.05,3.62,22.83,15.71,16-9.05-.4-1.47,1.69-3.48,2.11-5.36,3.44-15.5,17,5.34,19.54-5,1.41-5.85-14.66-12.21,1.16-20.74,3.86-2.09,14.53-7.77,15.1-15.37.92-12.47,20.12-17.08,12.87-32.23a16.58,16.58,0,0,1,3.87-.37c6.42.86,8.33-3.37,8.59-8.28.73-13.8,10-24.6,17.74-33,8.59-9.25,8.1-14.42,2.2-22.68,6.89-1.22,17.86,3.86,17.89-8.78,0-9.79,6.42-15.49,10.24-22.93,12.52-24.3,24.83-48.71,37.22-73.08l-4.7-2.46c-12.18,20.84-25,41.32-36.29,62.65C2780.88,2420.83,2766.88,2432.62,2764.72,2450.69Zm-621.58,503.08c-10.58-.62-18.66,5.95-27.48,10-83.45,38.1-170.23,63.72-261.77,73.38-38.77,4.09-77.64,1.81-116.38,4.91,44,5.6,87.83,7.29,132.3,3.21,64.43-5.92,125.63-24.49,187-42.62,29.45-8.71,57.39-22.45,86.27-33.21,8.49-3.16,8.65-6.66,3.61-12.67,9.4,4.74,19.46,2.87,24.81-4.39,8.16-11.08,15.33-7.45,24-.49,1.92-7.13-5.93-14.16,1.36-17.58,5.57-2.61,8.5,7.89,15.19,6.15,1.87-5.37-7.09-13.65-2.77-13,19.11,2.74,27.54-25.18,48.19-13-2-13.33-2.05-13.42,10.56-14.9,1.95-.23,2.78.07,4.18-2.26,5.43-9,6.53-9.46,13-1.74,3.48,4.14,5.49,4.95,9.23,2,2.32-1.83,7.37-4.92,3.32-7.31-22.86-13.47-.91-11.41,4.71-17.09,9.64-9.74,25.9-11,31.34-26.16,1.79-5,7.28-5.21,9.92,1.42,1.44,3.62.49,11.46,7.92,6.95,4.81-2.93,4.14-7.8-.84-11.29-6.19-4.33-5.25-9.65.39-12.47,7.81-3.9,6.15,3.15,6.67,7.34.45,3.55,2.57,7.46,6.09,5.67a46.3,46.3,0,0,0,13.66-11c2.56-3-.49-5.52-3.39-7.72s-11,2.93-9.29-6c.66-3.37,3.09-5.63,6.46-7,6.28-2.49,8,1.64,10.06,6.14,3.25,7,10.76,9.54,12.94,2.25,2.05-6.87,20.31-7.2,8.05-19.05-3.5-3.38-11.33-6.48-5.93-11.65,5.09-4.88,9,2.52,12,6.45,3.14,4.23,5.84,7.69,10.8,2.7,3.76-3.79,5.46-8.08-.62-11.15s-9.62-5.64-4.17-13.23c6.33-8.79,11.62-3.34,16.47.11,3.53,2.52,6.8,9.4,10.34,3,5.94-10.66,19.87-13.31,23.4-25.51.22-.76-2.16-3.08-3.6-3.37-6.67-1.37-15.45-2-8.41-11.68,4.8-6.57,10.31-2.88,14.05,3.13,3.25,5.23,7.3,5,11.53,1.11,5.2-4.76,2.17-8.62-2-11.17-6.87-4.18-8.18-7.26-.93-12.88,5.43-4.2,8.22-8.19,12.26,1.38,4.22,10,8.22,3.46,12.46-1.19,10.21-11.22,21-21.88,31.31-33,5.17-5.6,14.32-12-1.33-16.39-7.47-2.11-4.81-6.92-1.06-10.09,2.2-1.85,6.39-6.35,8.77.73,4.65,13.85,10.85,5.15,15.09.28,10.92-12.51,20.12-26.65,31.82-38.33,8.24-8.21,12.24-13.54.66-21.39-2.12-1.44-5.11-5.38-1.6-8.22,2.36-1.91,6.51-2.85,8.77.62,2.72,4.18,5.46,8.63,10.58,4.38,3.75-3.11,4.44-8.17,1-12.5-2.79-3.48-4.41-7.77-1.2-10.73,4.66-4.31,6.48,1.38,8.72,4.13,3.33,4.08,7.59,1.29,7.45-1.07-1.27-22.33,29.88-30.6,23.58-55.22-1-3.79,3.76-1.33,5.73-.6,4.15,1.54,7.06,0,6.62-4-1.74-16,26.94-20.77,14.62-40.37,1.1-.2,2.5-.95,3.24-.52,7.66,4.39,8.69-2.17,11.21-6.54,17.6-30.53,35.47-60.91,52.83-91.57,17.86-31.52,34.22-63.77,46.38-98-34.57,46.76-61.83,98-94.56,145.91-30.36,44.42-59.78,89.48-93.35,131.52-44.8,56.09-92.87,109.32-143,160.81-78.4,80.54-164.13,151.35-262.39,206.6C2174,2933.66,2155.89,2939.58,2143.14,2953.77Zm-339.06-440.44c-33.41-8.91-62.23-26.52-88.13-47.73-67.75-55.46-92.3-129.72-88.55-215,1.26-28.68,7.77-56.58,15.36-84.09,2.42-8.76,5-20.48,8.63-25.53,24.72-34.56,38-75.93,67.67-107.77,17.7-19,31.28-42.09,49.59-61.1,14.92-15.49,29.34-31.45,43.62-46.82,1,.57.41-.07,0,0a9.22,9.22,0,0,0-3.56,1.46c-100.86,82.09-181,177.45-194.09,313.43-8.9,92.33,11.58,176.31,82.86,240.83,84.89,76.86,187,90.06,294.78,70.39,119-21.72,214.31-85.43,293.34-175.48,80-91.18,136.58-197.21,193.27-303.2,15.2-28.41,15.12-28.59-11.14-46.44-116.4-79.15-233.36-157.37-358.34-222.76-10.53-5.51-18.52-5.34-29.51-1a568,568,0,0,0-215.51,150c-89.49,99.56-146.14,212.29-128.15,350.79,12.44,95.75,60.36,168.57,148.81,211.93,8.79,4.31,17.65,8.48,26.48,12.72a206.64,206.64,0,0,1-74.06-19.66c-56.48-27.32-97.82-71.06-120.38-129.64-32.12-83.4-29.86-167.51,2.6-250.69,7.61-19.48,16.39-38.49,24.63-57.72C1654.64,2177.35,1618.59,2388.48,1804.08,2513.33Zm2.12-748c-12.78,3.11-25.82,5.41-38.31,9.43-159.15,51.31-286.61,144-375.71,287.2-48.8,78.45-76.29,163-78.14,255.62-5.24,263.71,195.88,465.1,421.9,507.49,143.55,26.92,280.77,2.1,410.83-59.84,224.14-106.74,385.64-277.69,497.37-497.48,8.21-16.17,13-34.09,20.3-53.83-9.59,4.81-11.87,11.39-15.47,16.66-80.89,118.55-164.28,234.82-268.88,334.6-112.44,107.26-241,184.71-393.54,217.79-141.83,30.75-279,18.59-405-59.22-196.73-121.43-281.82-348.64-195.1-564.65,54.95-136.88,153.13-238.95,275.28-319.14C1707.35,1810,1756.33,1786.73,1806.2,1765.31Zm17.23,43.94c-2.46.59-5,1-7.38,1.8-172,57.88-301.5,166.1-379.61,330.23-58,121.78-58.94,246.72,2.38,368.73,54.91,109.27,146.15,178.42,257.61,222.56,21.07,8.35,42.85,15.9,66.6,18.77,14.38,1.73,32.39-.79,45.8,11.33,3.57,3.22,16.18,3.17,16.38,2.42,4.37-16.42,14.38-4.72,19.32-2.69,8.7,3.59,16.22,7.87,26.26,5.09,19.77-5.46,40.41-2.23,60.88-5.57,22.39-3.66,45.51-7.91,68.83-9.18,30.94-1.69,56.64-26.8,89.47-25.06,10.35-22.92,35.79-19.45,53.52-28.41,71.61-36.18,139-78.47,197.87-132.46,103.07-94.57,187.46-204,248.7-330.45,8.08-16.67,16-33.51,19.48-52-6.24,7.13-11.34,14.83-16.65,22.37-75.66,107.44-149,216.6-243.91,309-95.48,92.95-204.15,162.24-335.65,192.07-134.48,30.51-263.18,20.78-383.81-52.08-156.21-94.36-227.59-272.5-176.69-447,34.73-119.09,110.47-210.4,202.82-289.24C1706.79,1875.78,1763.49,1840.14,1823.43,1809.25Zm4.51,49.78c-121,58.86-222.71,140-292.33,256.29-89.49,149.49-79.39,316.44,30.64,438.16,128.49,142.15,316.7,179.12,479.05,126.12,64.3-21,125.34-50.09,180.07-90.55,156.4-115.64,263.72-269.1,341.41-445.18,1-2.37,3.78-5.4-1.05-8.21-2.41,3.36-4.82,6.47-7,9.74-48.81,74.39-97.8,148.66-153.33,218.31-61.57,77.22-128.43,149.16-214.78,199.38-137.76,80.13-282.74,105.67-437.63,55.7-21.23-6.85-39-21.69-64.28-21.45-11.82.11-25.23-17-37.94-26.21-119-86.71-164.6-238.44-113.1-376.21,38.36-102.61,103.27-186.16,186.46-256.33C1757.61,1910.38,1792.38,1883.94,1827.94,1859ZM1597.8,2146.24c-5.32,10.59-10.91,21.06-15.92,31.8-58.3,125-28.19,272.1,75.35,358.77,109,91.25,234.45,106.1,368.29,73.2,35.81-8.8,70.77-20.14,104.15-38,32-17.16,64-33.94,92.84-55.9,123.94-94.4,208.34-219.06,272.75-358.78,2.42-5.25,6.16-10.67,4.2-19.68-18.27,27.34-35.21,52.64-52.09,78-6.23,9.36-11.79,21.73-22.08,24.61-22.82,6.37-30.25,25.71-41.32,42.18-52.71,78.36-109.09,153.76-186.6,209.65-111.67,80.53-236.66,107.44-371.79,84.52-172.68-29.29-275.67-175.65-246-346.17C1584.52,2202.34,1592.79,2175.27,1597.8,2146.24Zm-355.25-202.87c28.53-36.78,135.18-171.49,241.16-240.53,0,0,21.11-13.67,33-18.67,30-12.6,59.73-26,90.58-38-5.94,0-12-.68-17.82.1-133.55,18-243.12,80.37-330.65,181.52-61.77,71.39-102.51,154.34-127.18,245.33-3.84,14.16-2.79,19.67,8.59,22.56a15.57,15.57,0,0,0,17.23-7.27S1214,1980.14,1242.55,1943.37Zm1638.33,437.72c-114,209.55-250.12,401.36-440.33,549.94C2638.09,2788.31,2775.72,2597.69,2880.88,2381.09Zm127.39-75.76L2716.61,2131C2807.94,2199,2904.66,2257.93,3008.27,2305.33ZM1388.11,2023.52c-13.73,5.74-17.37,16.29-21,26.51-.43,1.18,4,5.59,4.39,5.35,9.17-4.94,10.58-15.64,16.53-23.12C1388.9,2031.12,1388.11,2028.63,1388.11,2023.52Zm-230.61,64.91s58.56-106.79,85-145.06c66.73-96.43,135.18-171.49,241.16-240.53" transform="translate(-1074.91 -410.77)"/><path class="cls-1" d="M2172,1453.9c-71.55-75.61-145.69-147.83-223.28-216.42-98-86.64-197.87-171-302.52-249.63-113.71-85.39-231.43-164.73-354.9-235.4a34.48,34.48,0,0,1-5.12-3.06c-5-4.19-16.14-4.89-11.18-15.25,6-12.47,14.37-2.21,19.86.42,50.34,24.06,98.87,51.51,146.26,80.93,195.21,121.18,374.85,262.75,546.56,415,96,85.07,186.44,175.85,280.49,262.87,176,162.81,365,307.9,572.59,428.84,153.19,89.23,307.37,176.49,466.67,254.22,158.58,77.37,318.11,153,483.37,215.4,86.2,32.57,172.78,64.22,263,84.36,4.09.91,18.71-1.77,9.69,12.12-.27.42,6.73,8.36,10.39,2,3.88-6.71,7-8.7,13.64-4.14,3.15,2.17,1.55,3.67.75,6.25-2.68,8.66-9,5.83-14.66,5.24-52.3-5.56-102.91-18.93-153.09-33.92-154.81-46.26-303.64-107.55-449.48-176.86-104.81-49.82-210.31-98.16-314.21-149.88a47.06,47.06,0,0,0-14.42-4.2c75.56,45.5,154.47,84.59,229.76,130.9-12.37-5.51-24.82-10.87-37.11-16.57-160.14-74.26-318-152.84-469.22-244.28-139.23-84.23-272.92-176.34-399.43-278.93q-177.91-144.27-364.72-277c-97.27-69.3-191.85-142.2-286.94-214.43-119.59-90.82-243.93-174.49-374.49-248.83-29.4-16.74-58.4-34.21-87.57-51.37-6.1-3.58-15.16-6.27-10-15.88,5.4-10,13.71-5,20.61-1.36,23.45,12.44,46.88,24.93,70,37.93,122.77,68.94,242.43,142.64,355.41,227,121.72,91,246.1,178.25,370.48,265.52C2163.44,1448.49,2167.77,1451.14,2172,1453.9Zm819.18,593,3.53-4.2-304.84-193.66-2.58,4.08C2782.78,1926.87,2885.73,1988.87,2991.2,2046.94Z" transform="translate(-1074.91 -410.77)"/><path class="cls-1" d="M3363.39,2333.78l181.18,105.45c-31.22-9.3-58.93-25.47-87.22-40.49-115.43-61.3-230.59-123.13-346.52-183.46-173.82-90.45-341.5-191.18-505.39-298.4-114.44-74.86-227.88-151.09-334-237.66Q2030.58,1482.74,1772.82,1309c-138.61-92.88-282.78-176-433.76-247.16-4.79-2.26-9.62-4.51-14.17-7.22-4.13-2.45-7.72-5.61-4.82-11.25,2.28-4.45,5.59-7.95,11-6.51a120.53,120.53,0,0,1,18.7,6.57,3295.88,3295.88,0,0,1,375.36,200.85c201.38,125.15,397.61,257.76,585,403q343,265.88,724.37,472.15c114.51,61.53,230.46,120.38,346.12,179.74C3518.67,2370,3656.82,2441,3798.84,2503.8c131.74,58.28,264.83,113.32,405.38,147.63a46.51,46.51,0,0,1,7.61,2.34c5.12,2.24,13.57,2.49,11.73,10.58-1.8,7.89-9.39,8.15-16.32,7.13-36.15-5.31-71.51-14.41-106.28-25.2-200.14-62.11-391.71-144.92-578.63-239.24C3470.44,2380.86,3419.36,2352.6,3363.39,2333.78Z" transform="translate(-1074.91 -410.77)"/><path class="cls-1" d="M1480.69,722.84c7.77-11.14,14.62-10.48,25-3.52,147.16,98.45,283.6,210.25,414.48,329.23,142.07,129.16,276.44,266.26,414.58,399.46,150.42,145,317.69,267.24,496.78,374.14,167,99.7,336.38,195.26,510.2,282.63,121.16,60.89,247.27,110.19,375.09,155.16,99,34.85,199.61,64.3,302.65,84.7,43,8.51,86.46,13.69,130.06,17.92,3.3.32,6.66.07,9.95.46,6.65.78,14.88,1.51,14.65,10-.22,8.12-7.68,9.87-14.89,9.38-23.82-1.61-47.71-2.61-71.43-5.12-138.8-14.67-271.93-52.44-403-98.83-131.37-46.49-258.37-103.44-386.44-158-155.64-66.32-300.89-151.55-446-237.22-100-59-197.9-121.5-291.28-190.83-116.54-86.51-222.91-184.4-325.6-286.65-103.51-103.06-203-210.08-308.9-310.84-138.28-131.6-285.44-252.4-438.52-366.19C1486,727.14,1483.94,725.44,1480.69,722.84Z" transform="translate(-1074.91 -410.77)"/><path class="cls-1" d="M2112.92,1681.23c2.23-4.37-.29-6.1-1-8.39-2.25-7.45-19.46-5.16-12.86-15.19,3.92-6,14.77,2,21,5.6,64.47,36.93,128.87,74,192.69,112C2481,1875.6,2641,1988.84,2808.52,2090.16c163.14,98.64,332.88,184.93,503.86,268.77,141.32,69.29,275.63,151.39,415.4,223.44,59.58,30.71,120,59.87,179.81,90.08,6.78,3.43,20,5,14.35,16.7-4.79,10-15.14,4.73-23.05,1.52-77.55-31.48-152.67-68.2-226.56-107.29-89.65-47.43-178.1-97.13-267.69-144.69-41.47-22-84.39-41.29-127.53-60.23,81.89,51.41,168.58,94.72,247.62,151.05-20.09-11.27-40.65-21.79-60.18-34-43.94-27.39-90.43-50-136.66-72.95-117.59-58.49-235.27-116.77-349.77-181.24-163.74-92.2-321.78-193.57-478.47-297.12-157.91-104.36-318.82-203.51-490.68-283.76-23.9-11.16-47.27-23.5-70.58-35.85-3.07-1.63-10.45-.92-8.27-8.17.71-2.33,2.37-5.72,4.14-6.11,4.88-1.06,10.56,1.52,11.54,5.62,3,12.36,10.37,5.55,17.27,6.7,16.75,2.8,33.13,9.08,49,15.56C2046,1652,2079.42,1666.87,2112.92,1681.23Z" transform="translate(-1074.91 -410.77)"/><path class="cls-1" d="M1258.33,1166.85c20.3-15.62,40.1-.61,57.74,4.29,122.8,34.1,237.29,88.62,348.58,149.72,209.09,114.79,409.16,244.09,605,380,40.69,28.24,79.46,59.25,117.07,92.27-26.69-15.19-53.52-30.15-80-45.62C2145,1653.2,1990.09,1548,1830.4,1450.46c-161.64-98.71-327.3-189.51-504.53-257.73-22.38-8.62-47.15-11.3-67-26.4Z" transform="translate(-1074.91 -410.77)"/><path class="cls-1" d="M2430,1309c12-23.59,21.17-42.93,31.38-61.73,59.36-109.2,134.44-207.55,211.71-304.26,20.2-25.29,40.08-51.83,69.48-67.72,6.47-3.5,2.16-5.85,1.88-8.89-.49-5.17.31-10.44,6.76-8.72,4.82,1.28,10.62-3.06,14.39,2.57,3.4,5.08.08,8.31-3.05,12-100.45,119.1-192.94,244.17-280,373.34-13.34,19.79-27.73,38.86-41.8,58.15C2439.75,1305.1,2437.38,1305.46,2430,1309Z" transform="translate(-1074.91 -410.77)"/><path class="cls-1" d="M3687.35,1831.1c1.58-16.32,6.43-24.3,21.34-16.72,7,3.55,8.88-.31,10.08-6.09,1.43-6.86,7-7,12.33-7,4.15,0,5.56,3,5.72,6.59.26,6.06-5,7.64-8.92,9.14C3715.31,1821.85,3702.42,1825.93,3687.35,1831.1Z" transform="translate(-1074.91 -410.77)"/><path class="cls-1" d="M3893.5,1614.22c-3.18,3.41-5.3,7.07-8.48,8.87-12.78,7.25-25.78,14-36.29,24.66a5.66,5.66,0,0,1-8.72-.66c-2.5-3.79,1.77-5.33,4-7.37,12.51-11.32,30-16.32,39.73-31.25.61-.93,3.82-1.35,4.79-.62C3890.44,1609.26,3891.61,1611.65,3893.5,1614.22Z" transform="translate(-1074.91 -410.77)"/><path class="cls-1" d="M4063.17,1299.27c-10.72-.08-15.06-4.76-9.44-14.75,4.48-8,10.12-15.27,15.17-22.93,2-3,5-5.28,8-3.25,3.69,2.48,4.43,7.1.42,9.94-11,7.82-13.54,19.31-14.76,31.58Z" transform="translate(-1074.91 -410.77)"/><path class="cls-1" d="M3947.49,1437c-2.69,10.46-8,17.19-18.1,19-3.48.61-5.63-3.26-4.55-4.68,5.27-6.91,10.89-13.72,17.42-19.36C3944.17,1430.23,3948.13,1433.7,3947.49,1437Z" transform="translate(-1074.91 -410.77)"/><path class="cls-1" d="M3886.84,1485.31c8.47-9.61,14.3-16.48,20.43-23.06,3-3.24,7.45-7.7,11.28-3.3,4,4.61-1.59,9.45-4.93,10.81C3904.93,1473.3,3903,1486.9,3886.84,1485.31Z" transform="translate(-1074.91 -410.77)"/><path class="cls-1" d="M4035.26,1490.42c-4.85-.65-9.14,8.16-13.76,1.83-4-5.42,1.88-9.85,4.91-13.34,3.89-4.49,6.54-11.46,17.63-11.3l-9.38,23.46S4035.26,1490.42,4035.26,1490.42Z" transform="translate(-1074.91 -410.77)"/><path class="cls-1" d="M3926.9,1575.35c.3,6.87-18.68,34-24.16,34.34a5,5,0,0,1-3.53-1.24c-3.22-3.39.45-5.68,1.56-8.43,5-12.2,21.11-12.48,26.11-24.61Z" transform="translate(-1074.91 -410.77)"/><path class="cls-1" d="M4091.68,1566.09c-5.47-2.19-13.18,9.9-17.23-3.27-2.91-9.46,4.92-12.53,9.4-14.89,8.64-4.55,12.39-.83,8.42,9-1.18,2.92-.76,6.49-1.09,9.78Z" transform="translate(-1074.91 -410.77)"/><path class="cls-1" d="M3661.57,1828.1c-2.27-9.16,5.47-8.77,10.53-10.37,5.47-1.74,8.56.39,9,6.69.59,8.79-5.76,8.94-11.5,10.35S3660.43,1835,3661.57,1828.1Z" transform="translate(-1074.91 -410.77)"/><path class="cls-1" d="M4094.15,1221.16c4.48,7.48-.68,13.67-2.67,20.29-1.46,4.85-1.88,12.06-9.46,8.48-6.26-3-3.76-9.3-1.17-13.71,3.41-5.8,4.49-14.32,13.9-14.47Z" transform="translate(-1074.91 -410.77)"/><path class="cls-1" d="M3968.9,1426c-5.3-2-13.47,5.46-15.76-1.6-3.08-9.5,7.89-13.59,11.69-21,10.75,7.25,2.43,15.83,3.34,23.35Z" transform="translate(-1074.91 -410.77)"/><path class="cls-1" d="M3427.63,1753.73c-5.87,1.51-8.44-.47-9.12-4-.44-2.26-.07-5.74,1.39-7.09,3.59-3.33,4.29.82,6.68,2.74,6.28,5,8.19-2.27,10.89-5.79,1.85-2.41,2.53-7.4,6.55-4.15,2.91,2.35,4.09,6.86-.9,9.65C3437.41,1748.26,3431.72,1751.45,3427.63,1753.73Z" transform="translate(-1074.91 -410.77)"/><path class="cls-1" d="M3274.64,782.89c-5.17,6.44-13.77,8.92-21.93,11.7-3.06,1-8.59-1.77-7.57-4.2,4.06-9.73,16-8.41,23.21-14.33C3270.37,774.41,3274.52,777.11,3274.64,782.89Z" transform="translate(-1074.91 -410.77)"/><path class="cls-1" d="M3193.65,829.9c-6.55,6.72-13.68,11.23-22,13.16-3.19.74-4.85-3.79-3.66-5.36,4.72-6.22,9.4-13.24,17.28-15.32C3187.22,821.86,3190.72,827.15,3193.65,829.9Z" transform="translate(-1074.91 -410.77)"/><path class="cls-1" d="M2911.16,1161.92c1.43-9.29,10.9-12.55,14.61-20.15a5.12,5.12,0,0,1,8.3-1c2.56,2.7,2.28,6.77-.88,8.39C2925.64,1153,2921.33,1162.51,2911.16,1161.92Z" transform="translate(-1074.91 -410.77)"/></svg>