<svg id="Layer_1" data-name="Layer 1" xmlns="http://www.w3.org/2000/svg" viewBox="0 0 5110.98 1060.84"><defs><style>.cls-1{fill:#0b5394;}</style></defs><path class="cls-1" d="M2249.36,4172.17q0-189.93,0-379.88c0-4,.12-8,.3-12a4.15,4.15,0,0,1,3.94-3.8c1.66-.14,3.33-.26,5-.26,10.66,0,21.33.15,32-.08a22,22,0,0,1,13.92,4.43,92.13,92.13,0,0,0,29.8,13.68c22.13,6,43.53,3.87,64.31-5.48,3.94-1.77,7.69-4,11.54-5.94,18.1-9.35,36.82-17.15,56.63-22.11a194,194,0,0,1,32.44-5.47c9-.68,17.95-1.8,26.93-1.06,12.94,1.08,25.93,1.29,38.85,3a316.46,316.46,0,0,1,50.77,10.51,238.32,238.32,0,0,1,82.51,43.57c26.43,21.48,45.88,48.09,58.85,79.49a277.19,277.19,0,0,1,16.92,60.45,424.64,424.64,0,0,1,5.36,86.63c-.5,13-1.48,25.91-3.13,38.83a338.33,338.33,0,0,1-10.45,51.82c-6.74,23.17-16.32,45.06-29.79,65.16-17.94,26.77-41.25,47.84-68.72,64.42-22.13,13.36-46,22.54-71,28.72a319.8,319.8,0,0,1-42.26,7.45c-19.55,2.13-39.2,3.41-58.87,2.17-16.64-1-33.09-3.61-49-8.85-17.7-5.82-35.39-11.7-53.09-17.52-1.89-.62-3.83-1.1-5.77-1.54a2.69,2.69,0,0,0-3.38,2.64c-.11,3.66-.2,7.33-.2,11q0,135,0,269.91c0,3.67,0,7.33-.15,11-.07,2.25-1.44,3.43-3.93,3.56-1.33.07-2.66.11-4,.11q-59,0-118,0a39.51,39.51,0,0,1-5.94-.54,2.11,2.11,0,0,1-1.33-1.25,12.9,12.9,0,0,1-.92-3.84c-.14-3.66-.11-7.33-.11-11Q2249.36,4361.12,2249.36,4172.17Zm134.37-143.54v140.86c0,3,.05,6,.08,9a5.59,5.59,0,0,0,3.53,5.47c18.12,8.39,36.18,16.86,55.39,22.61s39,8.56,59.12,7.34c3.32-.2,6.69-.18,10-.7a129,129,0,0,0,39.72-12.78c18-9.41,32.87-22.55,45.4-38.42,13.77-17.46,23.39-37.06,30.05-58.23,7.65-24.34,10.6-49.41,11.35-74.76a286,286,0,0,0-5.74-65.52,183,183,0,0,0-18.77-52.43c-18.14-32.94-44.74-55.83-80.8-67.23a162.18,162.18,0,0,0-53.18-7.17,123.72,123.72,0,0,0-25.65,3.47,140.87,140.87,0,0,0-38.77,15.53c-9.47,5.55-18.57,11.73-27.87,17.58a7.76,7.76,0,0,0-3.82,7.54c.13,3,0,6,0,9Z" transform="translate(-170.73 -3505.86)"/><path class="cls-1" d="M2968.84,3898V3531.06q0-4.5,0-9c0-8.15.09-8,8.22-8.79,10-.95,19.95-1.28,29.93-1.84,15.63-.87,31.23-2.11,46.85-3.17,3.33-.22,6.66-.26,10-.47,7.31-.45,14.62-1,21.93-1.44,3.66-.22,7.32-.42,11-.49,4.53-.08,5.66,1.08,5.83,6,.12,3.66.1,7.33.1,11v247.92c0,3.67,0,7.33.1,11a27.43,27.43,0,0,0,.33,3c.22,1.67,2.05,3.09,3.54,2.63,2.86-.86,5.71-1.77,8.54-2.76,16.66-5.79,33.33-11.56,50-17.44a215.85,215.85,0,0,1,44.53-10.91c14.86-1.9,29.83-3.23,44.86-1.48,3.3.39,6.64.49,10,.67a290.17,290.17,0,0,1,83,16.38,230.89,230.89,0,0,1,83.57,51.53c19.74,19,34.43,41.41,45,66.62a276.39,276.39,0,0,1,15.91,53.51c5.76,29.25,7.2,58.81,6.63,88.52-.12,6.33-.37,12.66-.65,19-.52,11.66-2,23.21-3.65,34.76a303.38,303.38,0,0,1-10.39,46.74c-7.49,24.37-18.16,47.21-33.27,67.86-18.2,24.86-41.08,44.44-67.63,59.85-20.89,12.12-43.25,20.54-66.62,26.43a317.56,317.56,0,0,1-43.23,7.63c-19.22,2.09-38.54,3.36-57.88,2.19-27.57-1.68-53.85-8.47-78.49-21.18-3.55-1.83-7-3.77-10.6-5.59a93.6,93.6,0,0,0-42.23-10.71,97.09,97.09,0,0,0-58.06,18.4c-4.78,4.93-10.66,5.91-17.32,5.65-10.31-.42-20.66-.1-31-.13-2,0-4-.21-6-.37a3.08,3.08,0,0,1-2.49-2.69c-.1-1.32-.23-2.65-.24-4,0-3.33,0-6.66,0-10Zm133.85,130.14v138.84c0,3.33.09,6.66.07,10,0,3.7,1.43,6.23,5,7.76,10.1,4.31,20.09,8.86,30.15,13.25a225.87,225.87,0,0,0,23.46,8.42,187.25,187.25,0,0,0,30.16,6.69c9.9,1.35,19.92,1.24,29.92.89a110.7,110.7,0,0,0,23.61-3.68c21.46-5.51,39.94-16.32,55.9-31.53,18.89-18,32.4-39.57,41.49-63.95a234.36,234.36,0,0,0,14.26-71.15c.54-11.3.38-22.63.32-33.95a233.76,233.76,0,0,0-6.39-51.41c-4-17.6-10.15-34.45-19.24-50.12-19.46-33.56-47.61-55.9-85.25-66a168.12,168.12,0,0,0-47.42-5.43,125.21,125.21,0,0,0-25.66,3.42c-16.07,3.68-30.84,10.42-44.75,19.12-4.79,3-9.44,6.23-14.09,9.46-12.83,8.9-11.51,5.61-11.53,21.57Q3102.6,3959.17,3102.69,4028.09Z" transform="translate(-170.73 -3505.86)"/><path class="cls-1" d="M700.63,3895.29q0,185.89,0,371.79c0,4.32-.3,8.64-.52,12.95a3.21,3.21,0,0,1-2.69,2.53c-1.32.12-2.65.3-4,.3-11.67,0-23.33-.06-35,.07a12.48,12.48,0,0,1-9-3.38,79.15,79.15,0,0,0-7.12-5.48A92.22,92.22,0,0,0,600,4257.23c-17.42-2.28-34.58-.53-50.86,6.75-3.95,1.76-7.82,3.68-11.7,5.61-16.42,8.19-33.27,15.25-51.06,19.9a253.66,253.66,0,0,1-29.37,5.65c-13.29,1.84-26.59,1.89-39.89,1.3-28.68-1.27-57-5.15-84.51-13.75a237.23,237.23,0,0,1-85.87-47.56,195.42,195.42,0,0,1-49.88-66.7c-9.66-21-15.95-43-20-65.73-5.77-32-7.05-64.22-5.52-96.55,1.37-28.66,5.3-57,13.55-84.61,7.4-24.74,17.84-48,32.92-69.11,18.94-26.46,43.1-47.06,71.34-63A253.65,253.65,0,0,1,356,3763.75a326.4,326.4,0,0,1,38.34-6.61,396.72,396.72,0,0,1,47.83-2.95c22.73.17,45.1,3.24,66.74,10.71,16,5.54,32.18,10.79,48.3,16.09,9.2,3,9.55,2.74,9.65-6.74,0-2.67,0-5.33,0-8q0-118.93,0-237.87c0-3.66,0-7.33.13-11,.07-2.28,1.32-3.54,3.8-3.71,9.3-.65,18.55-1.87,27.9-2,6-.1,12-.77,17.94-1.19,1-.07,2-.23,3-.28,15.3-.84,30.6-1.63,45.89-2.51,6-.34,12-.93,17.94-1.26,4.65-.25,9.3-.29,14-.37a3.08,3.08,0,0,1,2.69,2.5,35.35,35.35,0,0,1,.44,3.95c.08,3.67.07,7.33.07,11ZM566.88,4021.66q0-70.42,0-140.86c0-3.33-.11-6.66-.37-10a4.69,4.69,0,0,0-1.41-2.51,8.07,8.07,0,0,0-2.5-1.61c-14.84-6.75-29.55-13.81-45-19.15-21.56-7.46-43.62-11.79-66.59-10.86a126.12,126.12,0,0,0-22.71,3.09c-23.31,5.28-43.34,16.68-60.45,33.27-19.24,18.67-32.73,41-41.73,66.13-9.07,25.32-12.85,51.6-13.83,78.33a295.86,295.86,0,0,0,1.27,40.9,267.17,267.17,0,0,0,6.66,39.31c4.47,17.51,11,34.19,20.66,49.56,24.42,39,60.06,60.3,105.32,66,9.57,1.2,19.27,1,28.94.7a115,115,0,0,0,24.59-3.86c15.65-4,30-10.86,43.52-19.54,4.76-3,9.43-6.26,14.07-9.5,10.84-7.6,9.51-4.8,9.53-18.54Q566.95,4092.09,566.88,4021.66Z" transform="translate(-170.73 -3505.86)"/><path class="cls-1" d="M4587.25,4030.6q0,119.47,0,239c0,4-.3,8-.55,11.94a3.27,3.27,0,0,1-2.58,2.7c-1.66.14-3.32.3-5,.3-10.34,0-20.67-.18-31,.1a13.32,13.32,0,0,1-10.59-4.47c-3-3.1-6.22-6-9.34-9s-6.21-6-9.36-9a94.7,94.7,0,0,0-46.22-24.44,91.69,91.69,0,0,0-31.76-1.56,107.82,107.82,0,0,0-37.68,12.41,538.09,538.09,0,0,1-66,30.89,381.84,381.84,0,0,1-63.12,18.64c-12.39,2.46-24.88,4.62-37.58,5-2.67.08-5.33.35-8,.61a141.1,141.1,0,0,1-27.95,0c-3.31-.33-6.64-.53-10-.73a180.27,180.27,0,0,1-51.63-10.73c-27.58-10.09-48.92-27.92-64.68-52.64a181.92,181.92,0,0,1-23.28-54.94,251.27,251.27,0,0,1-6.69-44.38c-.88-14-1.1-28-1.1-42q0-153.47,0-306.93c0-3.66.1-7.33.27-11a4.13,4.13,0,0,1,3.92-3.82c2.32-.16,4.66-.26,7-.26q56,0,112,0c2,0,4,0,6,.15,3.47.21,5,1.63,5.07,4.85s.09,6.66.09,10q0,148.46,0,296.93c0,6.33-.08,12.67.26,19a126.61,126.61,0,0,0,16.05,56.16,92.56,92.56,0,0,0,60.14,46c12,3,24.24,4.69,36.63,3.95a195.88,195.88,0,0,0,23.8-2.71c38.5-7.08,75.3-19.63,111-35.45,6.7-3,13.32-6.11,20-9.21,1.8-.85,3.58-1.77,5.3-2.76a3.87,3.87,0,0,0,1.95-3.3c.13-3.32.24-6.65.25-10q0-60.48,0-121,0-119,0-238c0-3.66.09-7.32.21-11a3.79,3.79,0,0,1,3.28-3.25c3.32-.22,6.64-.41,10-.42q45.49,0,91,0c6.67,0,13.33,0,20,0,2,0,4,.15,6,.31a4.14,4.14,0,0,1,3.46,3.13,38.1,38.1,0,0,1,.39,4c.06,3,0,6,0,9Z" transform="translate(-170.73 -3505.86)"/><path class="cls-1" d="M5091.35,4040.32q-88,0-176,0c-3.66,0-7.32.21-11,.37a3,3,0,0,0-2.15,2.89c.66,2.57,1.26,5.17,2.07,7.7q7.65,23.76,15.38,47.5c16.26,49.63,49.75,82.51,98.28,100.53,15,5.57,30.67,8.65,46.6,10.65a269.94,269.94,0,0,0,34.9,1.78c14-.06,27.95-.41,41.93-1.57,10.94-.91,21.89-1.9,32.84-2.8,8.28-.67,16.52-1.93,24.77-3,5.94-.77,11.86-1.71,17.79-2.53,17.81-2.45,35.48-5.66,53-9.78a77.88,77.88,0,0,1,8.83-1.62c.64-.07,1.78,1,2.07,1.8a11,11,0,0,1,.48,3.93q-.37,25.48-.85,51a14.82,14.82,0,0,1-.48,3.94,4.5,4.5,0,0,1-1.62,2.38,56.55,56.55,0,0,1-6.1,3.37,303.21,303.21,0,0,1-40.92,15.88,519,519,0,0,1-67.83,16.49c-12.15,2.09-24.35,3.84-36.58,5.05a484.62,484.62,0,0,1-73.87,2c-14.62-.78-29.26-1.82-43.77-3.9-32.73-4.71-64.65-12.54-95.18-25.5-23.14-9.82-44.77-22.15-64.11-38.28q-58.66-48.94-77.19-123.14a280.3,280.3,0,0,1-8.34-61.23c-.33-13.67-.46-27.35.49-41,3.46-49.74,17.06-96.16,45.42-137.76,24.41-35.8,56.24-62.88,95.14-81.76a279.5,279.5,0,0,1,76.77-24.46,292.77,292.77,0,0,1,34.7-4c9-.41,17.93-1.55,26.94-1.18,23.65,1,47.12,3,70.16,9.09,35.29,9.33,65.68,27.07,91.91,52.21,19.72,18.89,35,41,46.58,65.64a299,299,0,0,1,23.58,75c4.6,25.68,6.06,51.56,5.59,77.59a12.8,12.8,0,0,1-.52,3.92,4.19,4.19,0,0,1-1.93,2.06,6.8,6.8,0,0,1-2.89.6c-3,.09-6,.08-9,.08Zm-56.75-20.75h94c7,0,14,0,21,0a20.33,20.33,0,0,0,4.94-.53,3.31,3.31,0,0,0,2-1.94,17.15,17.15,0,0,0,.67-4.9c0-14.32.08-28.65-.07-43a104.86,104.86,0,0,0-1-14.94,144.6,144.6,0,0,0-31.5-70.24,105.06,105.06,0,0,0-36.68-28.74c-18.12-8.66-37.36-11.74-57.29-11.05a104.47,104.47,0,0,0-13.94,1.05,115.78,115.78,0,0,0-43.55,16.64,137.27,137.27,0,0,0-40.91,40.47c-13.74,20.83-21,43.7-20.62,68.78.17,11.66.52,23.32.86,35,.09,3,.39,6,.73,9s1.71,4.22,4.48,4.32c3.32.13,6.66.15,10,.15Z" transform="translate(-170.73 -3505.86)"/><path class="cls-1" d="M1217.13,4040.32q-87.5,0-175,0c-16.17,0-15.5-1.08-10.51,14.2,4.76,14.56,9.38,29.16,14.09,43.73,16.06,49.73,49.48,82.71,97.94,100.9,15,5.63,30.67,8.69,46.59,10.75,20.29,2.64,40.58,1.8,60.89,1.38,9.23-1.35,18.54-1.78,27.79-3.12a437.71,437.71,0,0,0,43.08-8.47c12-3,23.68-6.74,35.35-10.69q2.36-.81,4.75-1.44a3.61,3.61,0,0,1,3.52,1.37c.63,1.18,1.3,2.34,1.81,3.57q12.6,30.45,25.17,60.93c.26.62.53,1.22.76,1.85a3.29,3.29,0,0,1-1.45,4.26c-2.39,1.16-4.81,2.27-7.26,3.3a362.61,362.61,0,0,1-38.66,13.39,490.52,490.52,0,0,1-62.29,14c-14.8,2.31-29.7,3.83-44.65,5-17.66,1.43-35.29,1.44-53,1.22-5.32-.07-10.64-.62-15.95-1-3.33-.22-6.65-.45-10-.71-45.52-3.54-89.45-13.47-131-32.86a242.34,242.34,0,0,1-52.4-32.76q-58.9-48.73-77.75-122.85a284,284,0,0,1-6.59-36.33c-2.83-23.27-2.85-46.6-1.21-69.86,2.08-29.71,8.12-58.7,19.47-86.38,24.72-60.3,66.21-104.74,125.51-132.25a278.1,278.1,0,0,1,72.29-22.3c11.18-1.84,22.36-3.49,33.7-3.9,7-.26,14-1.13,21-1.19a349.2,349.2,0,0,1,46.81,3.13,228.85,228.85,0,0,1,47.5,11.31c28.43,10,53.07,26.15,74.73,47,20.46,19.65,36.07,42.69,47.79,68.43a300.57,300.57,0,0,1,22.25,72.35c4.56,25.7,6,51.59,5.52,77.62,0,1-.12,2-.22,3a4.18,4.18,0,0,1-3.45,3.14c-1,.1-2,.19-3,.2-3,0-6,0-9,0Zm-56.41-20.75h108c3,0,6,0,9-.09a7.51,7.51,0,0,0,2.93-.45,4.13,4.13,0,0,0,2.05-1.92,10.61,10.61,0,0,0,.66-3.89c0-16,0-32-.2-48a77.22,77.22,0,0,0-.87-10.95,144.89,144.89,0,0,0-30.25-68.69,106.64,106.64,0,0,0-50-35.16c-13.08-4.5-26.54-6.17-40.26-6.36a111.29,111.29,0,0,0-61.64,17.26,135,135,0,0,0-35.35,32.07c-18.23,23.43-27.73,49.85-27.07,79.7.23,10.66.48,21.32.81,32,.1,3.33.41,6.65.77,10,.31,2.91,1.71,4.26,4.44,4.36,3.33.12,6.66.15,10,.15Z" transform="translate(-170.73 -3505.86)"/><path class="cls-1" d="M1875.07,4040.32q-88,0-175.92,0c-3.66,0-7.32.22-11,.38-.93,0-2.27,2-2.08,3a34,34,0,0,0,.86,3.88c5.89,18.38,11.39,36.9,17.8,55.1,16.81,47.71,50,79.31,97.06,96.66,15,5.54,30.67,8.6,46.6,10.62,20.29,2.57,40.62,2.46,60.86,1.11a383,383,0,0,0,101.42-20.7c2.83-1,5.68-1.91,8.54-2.78a3.9,3.9,0,0,1,4.29,1.74c.44.9.86,1.81,1.24,2.73Q2037.4,4222.5,2050,4253c.38.92.75,1.85,1.1,2.79.62,1.66,0,3.16-1.85,4-2.41,1.13-4.86,2.17-7.31,3.19-15.4,6.39-31.28,11.29-47.32,15.76-17.32,4.81-34.92,8.41-52.62,11.48-6.88,1.2-13.9,1.58-20.78,2.75-11.2,1.92-22.58,1.66-33.82,3.12a74.59,74.59,0,0,1-9,.43c-11,.08-22,.21-33,.05-6.32-.1-12.63-.71-18.94-1.1-2.33-.15-4.65-.35-7-.51-41.14-2.81-81-11.35-119.24-26.95-23.24-9.48-45-21.69-64.5-37.59q-59.67-48.6-78.94-123.15a288.43,288.43,0,0,1-8.45-55.18,383.46,383.46,0,0,1,.57-53.92c4-49.75,18.76-95.84,47.93-136.85,24.07-33.85,55-59.53,92.32-77.59a279.8,279.8,0,0,1,76.77-24.44,292.8,292.8,0,0,1,34.69-4c8.65-.38,17.26-1.52,26-1.19,24,.9,47.78,3,71.13,9.14,40.85,10.83,74.81,32.61,103,63.75,18.78,20.75,32.42,44.68,42.63,70.61a305.46,305.46,0,0,1,16.91,61.49c4.1,24.39,5.41,48.95,5.22,73.63,0,1.33-.11,2.67-.23,4a4.3,4.3,0,0,1-3.3,3.33c-2.32.16-4.65.28-7,.28q-16.48,0-33,0Zm-56.33-20.75h106c3,0,6,0,9,0,1.33,0,2.66-.19,4-.33a3.89,3.89,0,0,0,3.12-3.38c.08-1,.18-2,.18-3q0-23-.07-46c0-7.71-1.4-15.26-3.07-22.73a144.48,144.48,0,0,0-27.29-57.26,107.16,107.16,0,0,0-53.22-37.21c-12.17-3.91-24.7-5.34-37.41-5.56a111,111,0,0,0-51.23,11.21c-18.31,8.92-33.46,21.78-46,37.7-18.35,23.32-27.93,49.75-27.36,79.6.23,12.33.59,24.66.93,37a59.86,59.86,0,0,0,.52,6,4.25,4.25,0,0,0,4,3.81q5,.21,10,.21Q1764.75,4019.59,1818.74,4019.57Z" transform="translate(-170.73 -3505.86)"/><path class="cls-1" d="M3822,3894.17q0,186.89,0,373.75c0,4-.17,8-.31,12a3,3,0,0,1-2.53,2.64c-2.32.15-4.64.35-7,.35q-57,0-113.94,0c-2.32,0-4.65-.2-7-.36a3.17,3.17,0,0,1-2.53-2.67c-.14-1.32-.31-2.64-.34-4-.06-2.66,0-5.33,0-8q0-369.75,0-739.5c0-4,.23-8,.41-12a3,3,0,0,1,2.61-2.57c8.3-.7,16.59-1.41,24.89-2,7.63-.56,15.28-1,22.92-1.5,3-.19,6-.36,9-.47,8.32-.29,16.64-.48,24.92-1.56,3.62-.47,7.32-.32,11-.54,7-.43,14-1,20.93-1.37,4.65-.26,9.31-.31,14-.39a2.85,2.85,0,0,1,2.68,2.45c.13,1.32.3,2.65.32,4,.05,3.33,0,6.66,0,10Z" transform="translate(-170.73 -3505.86)"/></svg>